#!OML:ASF E:\Style4\Style4.ASF
:FULLY-SPECIFIED
:DEGREES
1079
root -0.00548126 17.4562 -1.86129 -4.04047 0.314227 2.46413
lowerback 5.36208 2.24802 -0.918028
upperback 1.06284 2.94148 -0.0533708
thorax -1.95265 1.47249 0.254042
lowerneck 1.56207 -5.24523 -6.26688
upperneck -3.27602 -7.02275 5.01178
head -0.881183 -3.50959 2.73816
rclavicle 3.31101e-015 1.98785e-016
rhumerus -365.944 -3.87469 -428.375
rradius 112.146
rwrist -14.7228
rhand -44.8047 43.0906
rfingers 7.12502
rthumb -17.5957 13.8668
lclavicle 3.31101e-015 1.98785e-016
lhumerus -6.12686 -5.04901 67.7362
lradius 117.353
lwrist 15.4268
lhand -36.45 22.67
lfingers 7.12502
lthumb -9.544 52.4339
rfemur -11.5632 -0.280331 15.0662
rtibia 38.8374
rfoot -22.219 -11.4418
rtoes -11.8926
lfemur -8.20971 1.39456 -22.1432
ltibia 35.8245
lfoot -23.3785 8.45627
ltoes -13.9487
1080
root -0.00183666 17.4346 -1.85329 -4.23358 0.381086 2.47163
lowerback 5.45662 2.22433 -0.871228
upperback 1.10772 2.91123 -0.0764481
thorax -1.95536 1.45695 0.203611
lowerneck 1.65448 -5.22927 -6.31395
upperneck -3.50272 -7.00235 5.05035
head -0.968041 -3.4987 2.76901
rclavicle 2.24301e-014 -8.74653e-015
rhumerus -366.906 -2.88197 -429.579
rradius 113.232
rwrist -13.3726
rhand -45.134 44.1608
rfingers 7.12502
rthumb -17.9126 14.9657
lclavicle 2.24301e-014 -8.74653e-015
lhumerus -6.80098 -6.28106 68.8409
lradius 118.165
lwrist 13.8768
lhand -36.411 21.8318
lfingers 7.12502
lthumb -9.50636 51.5973
rfemur -11.5598 -0.385351 15.0356
rtibia 39.3316
rfoot -22.4261 -11.4984
rtoes -12.3232
lfemur -8.21414 1.43538 -22.1516
ltibia 36.2803
lfoot -23.5756 8.41107
ltoes -13.9472
1081
root 0.000864135 17.4113 -1.84659 -4.35196 0.451502 2.44599
lowerback 5.47428 2.19151 -0.822264
upperback 1.13862 2.87037 -0.0730574
thorax -1.93075 1.43621 0.182769
lowerneck 1.63093 -5.21188 -6.35466
upperneck -3.58706 -6.9775 5.03784
head -0.991503 -3.48464 2.77359
rclavicle -3.24772e-014 -6.75868e-015
rhumerus -367.891 -1.83159 -430.738
rradius 114.339
rwrist -11.94
rhand -45.5189 45.0269
rfingers 7.12502
rthumb -18.283 15.8661
lclavicle -3.24772e-014 -6.75868e-015
lhumerus -7.35407 -7.51943 69.9041
lradius 118.902
lwrist 12.2752
lhand -36.4773 21.3409
lfingers 7.12502
lthumb -9.57037 51.1035
rfemur -11.6503 -0.467775 15.0409
rtibia 39.8568
rfoot -22.7382 -11.4193
rtoes -12.1512
lfemur -8.30816 1.44304 -22.1313
ltibia 36.7557
lfoot -23.816 8.31051
ltoes -13.9766
1082
root 0.000892036 17.3872 -1.83996 -4.48004 0.531573 2.48312
lowerback 5.50408 2.17737 -0.876283
upperback 1.16829 2.84786 -0.0926745
thorax -1.91826 1.42513 0.193933
lowerneck 1.4971 -5.24023 -6.36385
upperneck -3.54929 -7.00893 5.02089
head -0.954341 -3.49881 2.76335
rclavicle 2.44552e-014 1.35174e-014
rhumerus -368.728 -0.866415 -431.856
rradius 115.4
rwrist -10.6735
rhand -45.7739 45.7069
rfingers 7.12502
rthumb -18.5282 16.5693
lclavicle 2.44552e-014 1.35174e-014
lhumerus -7.80429 -8.84161 70.8978
lradius 119.576
lwrist 10.7197
lhand -36.7041 20.8275
lfingers 7.12502
lthumb -9.78914 50.5799
rfemur -11.7471 -0.518747 14.9878
rtibia 40.4
rfoot -23.0316 -11.4036
rtoes -12.0319
lfemur -8.41504 1.45141 -22.1814
ltibia 37.261
lfoot -23.9764 8.3116
ltoes -14.3827
1083
root 0.00285997 17.3624 -1.82832 -4.62329 0.58484 2.66855
lowerback 5.49924 2.19439 -1.02794
upperback 1.20968 2.86036 -0.179482
thorax -1.87609 1.43179 0.189939
lowerneck 1.41676 -5.2741 -6.32447
upperneck -3.62042 -7.04789 4.98541
head -0.96318 -3.5168 2.74309
rclavicle 2.44987e-016 4.57205e-015
rhumerus -369.421 0.047326 -433.016
rradius 116.305
rwrist -9.42385
rhand -45.936 46.4715
rfingers 7.12502
rthumb -18.6841 17.3488
lclavicle 2.44987e-016 4.57205e-015
lhumerus -8.16137 -10.2367 71.8874
lradius 120.237
lwrist 9.19113
lhand -36.8005 20.5268
lfingers 7.12502
lthumb -9.88217 50.2749
rfemur -11.8331 -0.651649 14.748
rtibia 40.9414
rfoot -23.2577 -11.3847
rtoes -12.33
lfemur -8.50401 1.42648 -22.4178
ltibia 37.8092
lfoot -24.2125 8.3915
ltoes -14.5999
1084
root 0.00390968 17.3371 -1.81621 -4.78854 0.608797 2.71458
lowerback 5.49342 2.21305 -1.05601
upperback 1.24965 2.88299 -0.229219
thorax -1.83083 1.44295 0.154297
lowerneck 1.53154 -5.2854 -6.20402
upperneck -3.88385 -7.0629 4.92504
head -1.07273 -3.52408 2.71286
rclavicle 1.32122e-015 -1.94809e-014
rhumerus -370.09 1.09218 -434.322
rradius 117.135
rwrist -7.83023
rhand -46.0315 47.172
rfingers 7.12502
rthumb -18.776 18.0582
lclavicle 1.32122e-015 -1.94809e-014
lhumerus -8.44759 -11.7082 72.8449
lradius 120.855
lwrist 7.82666
lhand -37.1586 20.2712
lfingers 7.12502
lthumb -10.2276 50.0025
rfemur -11.8818 -0.709905 14.6877
rtibia 41.4406
rfoot -23.5244 -11.3935
rtoes -12.3547
lfemur -8.59434 1.41871 -22.4869
ltibia 38.3911
lfoot -24.5154 8.41196
ltoes -14.6258
1085
root 0.00132794 17.3129 -1.81077 -4.95109 0.629458 2.48883
lowerback 5.57396 2.21004 -0.882931
upperback 1.26576 2.88925 -0.166321
thorax -1.85398 1.44539 0.118788
lowerneck 1.64197 -5.28014 -6.17133
upperneck -4.11276 -7.05737 4.90624
head -1.16752 -3.52077 2.71142
rclavicle 8.25811e-015 -6.16232e-015
rhumerus -370.706 2.23432 -435.525
rradius 118.043
rwrist -6.30569
rhand -45.9308 47.6115
rfingers 7.12502
rthumb -18.6791 18.4884
lclavicle 8.25811e-015 -6.16232e-015
lhumerus -8.66631 -13.2032 73.7958
lradius 121.412
lwrist 6.64741
lhand -37.7903 19.6327
lfingers 7.12502
lthumb -10.837 49.3331
rfemur -11.9385 -0.61245 14.9741
rtibia 41.8983
rfoot -23.8107 -11.4004
rtoes -11.6065
lfemur -8.74905 1.46773 -22.2163
ltibia 38.9855
lfoot -24.6358 8.33729
ltoes -14.7889
